<svg version="1" xmlns="http://www.w3.org/2000/svg" width="533.333" height="533.333" viewBox="0 0 400.000000 400.000000"><path d="M207 10.7c-1.4.2-6.3 1.3-10.9 2.4-40.3 9.9-74.1 41.7-85.3 80.4-3.8 13.1-4.8 20.4-4.8 35.5 0 14.7 1.8 28.1 5.9 44 1.6 6.3 2.9 11.6 2.7 11.7-.3.3-10.5-.6-62.3-5.7-29.8-3-31.5-3-34.8-1.4-7.1 3.3-8 9.8-3.6 26.4 5.9 22.3 15.7 39 32.6 55.5 16.7 16.4 29.3 23.6 52.9 30.1 11.3 3.2 35.4 4.4 49.9 2.5 8.2-1.1 29.4-5.8 34-7.6 1.3-.6 1.7-.2 1.7 1.6 0 2.7-1.9 24-5.6 61.6-3.1 32.2-3.1 32.5.4 36.4 3.9 4.4 9 4.8 21.7 1.6 33.5-8.3 60.2-27.9 76.6-56.3 5.8-10.1 8.1-15.4 10.8-24.9 4-14.2 4.6-18.9 4.5-35 0-17.5-1-24.9-5.4-42.9-1.7-6.6-2.8-12.2-2.5-12.4.4-.5 12 .5 62.2 5.4 13.8 1.3 27 2.4 29.3 2.4 5.2 0 9.5-2.9 11-7.5 2.8-8.4-5.9-36.3-16.7-53.6-8.5-13.8-26.3-31.3-40.5-39.7-28.4-17-63.2-20.6-102.1-10.5-7.6 1.9-13.9 3.4-14.1 3.2-.2-.2.4-9 1.4-19.4 1-10.5 3-31.5 4.5-46.7 2.3-23.6 2.5-28.1 1.3-30.4-2.4-5-8.6-7.8-14.8-6.7zm2.8 166.9c13.2 6.6 18.2 22.2 10.6 33.4-6.2 9.3-15.7 13.8-24.9 11.8-11.2-2.4-19.4-12.1-19.5-23.1 0-10.2 4.9-17.8 14.5-22.3 6.7-3.2 12.7-3.1 19.3.2z"/></svg>