<?xml version="1.0" standalone="no"?>
<!DOCTYPE svg PUBLIC "-//W3C//DTD SVG 20010904//EN"
 "http://www.w3.org/TR/2001/REC-SVG-20010904/DTD/svg10.dtd">
<svg version="1.0" xmlns="http://www.w3.org/2000/svg"
 width="400.000000pt" height="400.000000pt" viewBox="0 0 400.000000 400.000000"
 preserveAspectRatio="xMidYMid meet">
<metadata>
Created by potrace 1.11, written by Peter Selinger 2001-2013
</metadata>
<g transform="translate(0.000000,400.000000) scale(0.100000,-0.100000)"
fill="#000000" stroke="none">
<path d="M2070 3893 c-14 -2 -63 -13 -109 -24 -403 -99 -741 -417 -853 -804
-38 -131 -48 -204 -48 -355 0 -147 18 -281 59 -440 16 -63 29 -116 27 -117 -3
-3 -105 6 -623 57 -298 30 -315 30 -348 14 -71 -33 -80 -98 -36 -264 59 -223
157 -390 326 -555 167 -164 293 -236 529 -301 113 -32 354 -44 499 -25 82 11
294 58 340 76 13 6 17 2 17 -16 0 -27 -19 -240 -56 -616 -31 -322 -31 -325 4
-364 39 -44 90 -48 217 -16 335 83 602 279 766 563 58 101 81 154 108 249 40
142 46 189 45 350 0 175 -10 249 -54 429 -17 66 -28 122 -25 124 4 5 120 -5
622 -54 138 -13 270 -24 293 -24 52 0 95 29 110 75 28 84 -59 363 -167 536
-85 138 -263 313 -405 397 -284 170 -632 206 -1021 105 -76 -19 -139 -34 -141
-32 -2 2 4 90 14 194 10 105 30 315 45 467 23 236 25 281 13 304 -24 50 -86
78 -148 67z m28 -1669 c132 -66 182 -222 106 -334 -62 -93 -157 -138 -249
-118 -112 24 -194 121 -195 231 0 102 49 178 145 223 67 32 127 31 193 -2z"/>
</g>
</svg>
